# xmcd
#
# Track frame offsets: 
#        150
#        20092
#        53176
#        84776
#        103953
#        121770
#        146705
#        178059
#        212951
#        259218
#
# Disc length: 3955 seconds
#
# Revision: 0
# Processed by: cddbd v1.4PL0 Copyright (c) Steve Scherf et al.
# Submitted via: ExactAudioCopy v0.90b4
#
DISCID=910f710a
DTITLE=Van Morrison - Charlton Marquee - Hay-on-Wye 1997, disc 3
DYEAR=1997
DGENRE=Celtic
TTITLE0=I've Been Working
TTITLE1=In The Afternoon > Shake, Rattle and Roll
TTITLE2=Tupelo Honey
TTITLE3=A Change Is Gonna Come
TTITLE4=Cleaning Windows
TTITLE5=Vanlose Stairway > Trans-Euro Train
TTITLE6=The Waiting Game
TTITLE7=Summertime In England
TTITLE8=It's A Man's World > Don't Let Me Breakdown > It's Too Late To
TTITLE8=Stop Now
TTITLE9=The Healing Game
EXTD=
EXTT0=
EXTT1=
EXTT2=
EXTT3=
EXTT4=
EXTT5=
EXTT6=
EXTT7=
EXTT8=
EXTT9=
PLAYORDER=
